<svg width="512" height="512" viewBox="0 0 512 512" fill="none" xmlns="http://www.w3.org/2000/svg">
    <!-- 背景圓形 -->
    <circle cx="256" cy="256" r="256" fill="#2196F3"/>
    
    <!-- 捷徑圖示 -->
    <path d="M256 128C185.307 128 128 185.307 128 256C128 326.693 185.307 384 256 384C326.693 384 384 326.693 384 256C384 185.307 326.693 128 256 128ZM324.267 268.8L268.8 324.267C264.533 328.533 258.133 330.667 251.733 330.667C245.333 330.667 238.933 328.533 234.667 324.267C226.133 315.733 226.133 301.867 234.667 293.333L262.4 265.6H196.267C184.533 265.6 174.933 256 174.933 244.267C174.933 232.533 184.533 222.933 196.267 222.933H262.4L234.667 195.2C226.133 186.667 226.133 172.8 234.667 164.267C243.2 155.733 257.067 155.733 265.6 164.267L321.067 219.733C329.6 228.267 329.6 242.133 321.067 250.667L324.267 268.8Z" fill="white"/>
</svg> 